<svg width="30" height="30" viewBox="0 0 30 30" fill="none" xmlns="http://www.w3.org/2000/svg">
<path d="M4.72875 3.5325L15 1.25L25.2712 3.5325C25.5488 3.5942 25.7971 3.74871 25.975 3.97051C26.153 4.19231 26.25 4.46815 26.25 4.7525V17.2362C26.2499 18.4709 25.945 19.6865 25.3624 20.775C24.7797 21.8636 23.9373 22.7914 22.91 23.4762L15 28.75L7.09 23.4762C6.06284 22.7915 5.22058 21.8639 4.63794 20.7756C4.05529 19.6873 3.7503 18.472 3.75 17.2375V4.7525C3.75005 4.46815 3.84705 4.19231 4.02499 3.97051C4.20293 3.74871 4.45117 3.5942 4.72875 3.5325ZM6.25 5.755V17.2362C6.25001 18.0593 6.45322 18.8697 6.84158 19.5954C7.22994 20.3211 7.79144 20.9396 8.47625 21.3963L15 25.7463L21.5238 21.3963C22.2084 20.9398 22.7698 20.3214 23.1581 19.5959C23.5465 18.8705 23.7498 18.0604 23.75 17.2375V5.755L15 3.8125L6.25 5.755ZM15 13.75C14.1712 13.75 13.3763 13.4208 12.7903 12.8347C12.2042 12.2487 11.875 11.4538 11.875 10.625C11.875 9.7962 12.2042 9.00134 12.7903 8.41529C13.3763 7.82924 14.1712 7.5 15 7.5C15.8288 7.5 16.6237 7.82924 17.2097 8.41529C17.7958 9.00134 18.125 9.7962 18.125 10.625C18.125 11.4538 17.7958 12.2487 17.2097 12.8347C16.6237 13.4208 15.8288 13.75 15 13.75ZM9.40875 20C9.56028 18.623 10.2146 17.3503 11.2463 16.4259C12.2781 15.5015 13.6147 14.9903 15 14.9903C16.3853 14.9903 17.7219 15.5015 18.7537 16.4259C19.7854 17.3503 20.4397 18.623 20.5912 20H9.40875Z" fill="#09CC66"/>
</svg>
