<svg width="30" height="30" viewBox="0 0 30 30" fill="none" xmlns="http://www.w3.org/2000/svg">
<path d="M15 8.75C17.6522 8.75 20.1957 9.80357 22.0711 11.6789C23.9464 13.5543 25 16.0978 25 18.75C25 21.4022 23.9464 23.9457 22.0711 25.8211C20.1957 27.6964 17.6522 28.75 15 28.75C12.3478 28.75 9.8043 27.6964 7.92893 25.8211C6.05357 23.9457 5 21.4022 5 18.75C5 16.0978 6.05357 13.5543 7.92893 11.6789C9.8043 9.80357 12.3478 8.75 15 8.75ZM15 11.25C13.0109 11.25 11.1032 12.0402 9.6967 13.4467C8.29018 14.8532 7.5 16.7609 7.5 18.75C7.5 20.7391 8.29018 22.6468 9.6967 24.0533C11.1032 25.4598 13.0109 26.25 15 26.25C16.9891 26.25 18.8968 25.4598 20.3033 24.0533C21.7098 22.6468 22.5 20.7391 22.5 18.75C22.5 16.7609 21.7098 14.8532 20.3033 13.4467C18.8968 12.0402 16.9891 11.25 15 11.25ZM15 13.125L16.6537 16.475L20.35 17.0125L17.675 19.6187L18.3062 23.3012L15 21.5625L11.6937 23.3L12.325 19.6187L9.65 17.0112L13.3462 16.4737L15 13.125ZM22.5 2.5V6.25L20.7962 7.6725C19.3824 6.93073 17.8388 6.46854 16.25 6.31125V2.5H22.5ZM13.75 2.49875V6.31125C12.1617 6.46831 10.6185 6.93006 9.205 7.67125L7.5 6.25V2.5L13.75 2.49875Z" fill="#09CC66"/>
</svg>
