<svg width="30" height="30" viewBox="0 0 30 30" fill="none" xmlns="http://www.w3.org/2000/svg">
<path d="M11.2063 22.5C11.0577 23.5429 10.5378 24.4971 9.7421 25.1874C8.94643 25.8778 7.9284 26.2578 6.875 26.2578C5.8216 26.2578 4.80357 25.8778 4.0079 25.1874C3.21223 24.4971 2.69235 23.5429 2.54375 22.5H1.25V7.5C1.25 7.16848 1.3817 6.85054 1.61612 6.61612C1.85054 6.3817 2.16848 6.25 2.5 6.25H20C20.3315 6.25 20.6495 6.3817 20.8839 6.61612C21.1183 6.85054 21.25 7.16848 21.25 7.5V10H25L28.75 15.07V22.5H26.2062C26.0576 23.5429 25.5378 24.4971 24.7421 25.1874C23.9464 25.8778 22.9284 26.2578 21.875 26.2578C20.8216 26.2578 19.8036 25.8778 19.0079 25.1874C18.2122 24.4971 17.6924 23.5429 17.5438 22.5H11.2063ZM18.75 8.75H3.75V18.8125C4.2432 18.309 4.85075 17.9321 5.52094 17.7139C6.19113 17.4957 6.90412 17.4426 7.59922 17.5592C8.29433 17.6758 8.95097 17.9587 9.51326 18.3836C10.0756 18.8086 10.5269 19.3631 10.8288 20H17.9212C18.1313 19.5588 18.4125 19.1575 18.75 18.8125V8.75ZM21.25 16.25H26.25V15.8938L23.74 12.5H21.25V16.25ZM21.875 23.75C22.3724 23.75 22.8495 23.5524 23.2013 23.2006C23.553 22.8489 23.7506 22.3718 23.7506 21.8744C23.7506 21.3769 23.553 20.8999 23.2013 20.5481C22.8495 20.1964 22.3724 19.9987 21.875 19.9987C21.3776 19.9987 20.9005 20.1964 20.5487 20.5481C20.197 20.8999 19.9994 21.3769 19.9994 21.8744C19.9994 22.3718 20.197 22.8489 20.5487 23.2006C20.9005 23.5524 21.3776 23.75 21.875 23.75ZM8.75 21.875C8.75 21.6288 8.7015 21.385 8.60727 21.1575C8.51305 20.93 8.37494 20.7233 8.20083 20.5492C8.02672 20.3751 7.82002 20.237 7.59253 20.1427C7.36505 20.0485 7.12123 20 6.875 20C6.62877 20 6.38495 20.0485 6.15747 20.1427C5.92998 20.237 5.72328 20.3751 5.54917 20.5492C5.37506 20.7233 5.23695 20.93 5.14273 21.1575C5.0485 21.385 5 21.6288 5 21.875C5 22.3723 5.19754 22.8492 5.54917 23.2008C5.90081 23.5525 6.37772 23.75 6.875 23.75C7.37228 23.75 7.84919 23.5525 8.20083 23.2008C8.55246 22.8492 8.75 22.3723 8.75 21.875Z" fill="#09CC66"/>
</svg>
