<svg width="34" height="34" viewBox="0 0 34 34" fill="none" xmlns="http://www.w3.org/2000/svg">
<path d="M16.9997 12.0417L19.9973 19.2497L27.7777 19.873L21.8503 24.9504L23.6608 32.5437L16.9997 28.475L10.3385 32.5437L12.149 24.9504L6.22168 19.873L14.002 19.2497L16.9997 12.0417ZM16.9997 19.4183L15.9528 21.9357L13.2384 22.1525L15.3068 23.9247L14.6735 26.5753L16.9997 25.1544L19.3244 26.5753L18.6926 23.9261L20.7595 22.1525L18.0466 21.9357L16.9997 19.4183ZM11.333 2.83337V15.5834H8.49968V2.83337H11.333ZM25.4997 2.83337V15.5834H22.6663V2.83337H25.4997ZM18.4163 2.83337V9.91671H15.583V2.83337H18.4163Z" fill="white"/>
</svg>
