<svg width="22" height="19" viewBox="0 0 22 19" fill="none" xmlns="http://www.w3.org/2000/svg">
<path d="M11.9999 0V1.278L16.9999 2.946L20.6319 1.736L21.2649 3.632L18.2329 4.643L21.3289 13.155C20.2369 14.292 18.6999 15 16.9999 15C15.2989 15 13.7629 14.292 12.6709 13.155L15.7649 4.643L11.9999 3.387V17H15.9999V19H5.9999V17H9.9999V3.387L6.2319 4.643L9.3279 13.155C8.2369 14.292 6.6999 15 4.9999 15C3.2989 15 1.7629 14.292 0.670898 13.155L3.7649 4.643L0.734898 3.633L1.3679 1.735L4.9999 2.945L9.9999 1.278V0H11.9999ZM16.9999 7.103L15.0419 12.489C15.6289 12.82 16.2989 13 16.9999 13C17.6999 13 18.3699 12.82 18.9579 12.49L16.9999 7.102V7.103ZM4.9999 7.103L3.0419 12.489C3.6289 12.82 4.2989 13 4.9999 13C5.6999 13 6.3699 12.82 6.9579 12.49L4.9999 7.102V7.103Z" fill="#1C1C33"/>
</svg>
